<svg width="512" height="512" xmlns="http://www.w3.org/2000/svg">
 <!-- Created with UXWing SVG Editor - https://uxwing.com/svg-icon-editor/ -->

 <g>
  <title>background</title>
  <rect fill="none" id="canvas_background" height="514" width="514" y="-1" x="-1"/>
  <g display="none" overflow="visible" y="0" x="0" height="100%" width="100%" id="canvasGrid">
   <rect fill="url(#gridpattern)" stroke-width="0" y="0" x="0" height="100%" width="100%"/>
  </g>
 </g>
 <g>
  <title>Layer 1</title>
  <g stroke="null" id="svg_8">
   <g stroke="null" transform="matrix(0.9159057632154404,0,0,0.7688470139076117,-1834.7926405752146,-1492.111056332089) " id="svg_5">
    <path fill="#2196f3" stroke="null" id="svg_6" d="m2541.009912,2316.034912c-1.068,-49.809 -41.915,-90 -91.975,-90l-203.139,0c-11.592,-9.372 -26.328,-15 -42.361,-15c-37.22,0 -67.5,30.28 -67.5,67.5c0,13.867 4.207,26.767 11.406,37.5l-41.406,0l0,-135l45,0l0,-150l-120,0l0,150l45,0l0,135l-45,0l0,90l75,0l0,47.58c-17.458,6.192 -30,22.865 -30,42.42c0,24.813 20.187,45 45,45s45,-20.187 45,-45c0,-11.517 -4.354,-22.032 -11.495,-30l262.99,0c-7.142,7.968 -11.495,18.483 -11.495,30c0,24.813 20.186,45 45,45c24.813,0 45,-20.187 45,-45c0,-19.555 -12.541,-36.227 -30,-42.42l0,-47.58l75,0c0,-9.531 0,-79.51 0,-90l-0.025,0zm-479.975,-255l60,0l0,90l-60,0l0,-90zm210,195l178,0c33.518,0 60.908,26.736 61.968,60l-239.968,0l0,-60zm-105,22.5c0,-20.678 16.822,-37.5 37.5,-37.5s37.5,16.822 37.5,37.5s-16.822,37.5 -37.5,37.5s-37.5,-16.822 -37.5,-37.5zm-45,232.5c-8.271,0 -15,-6.729 -15,-15s6.729,-15 15,-15s15,6.729 15,15s-6.729,15 -15,15zm330,0c-8.272,0 -15,-6.729 -15,-15s6.728,-15 15,-15c8.271,0 15,6.729 15,15s-6.729,15 -15,15zm-15,-75l-300,0l0,-30l300,0l0,30zm75,-60l-450,0l0,-30l450,0l0,30z"/>
    <path fill="#2196f3" stroke="null" id="svg_7" d="m2436.034912,2166.034912c24.813,0 45,-20.187 45,-45c0,-6.178 -1.765,-17.434 -17.025,-43.74c-9.588,-16.528 -17.124,-26.931 -27.975,-42.653c-10.853,15.724 -18.388,26.125 -27.975,42.653c-15.26,26.306 -17.025,37.562 -17.025,43.74c0,24.813 20.186,45 45,45zm0,-77.194c8.635,14.55 14.872,27.615 15,32.206c-0.007,8.265 -6.733,14.988 -15,14.988c-8.272,0 -15,-6.729 -15,-14.982c0.122,-4.585 6.361,-17.656 15,-32.212z"/>
   </g>
  </g>
 </g>
</svg>