<svg width="512" height="512" xmlns="http://www.w3.org/2000/svg">
 <!-- Created with UXWing SVG Editor - https://uxwing.com/svg-icon-editor/ -->

 <g>
  <title>background</title>
  <rect fill="none" id="canvas_background" height="514" width="514" y="-1" x="-1"/>
  <g display="none" overflow="visible" y="0" x="0" height="100%" width="100%" id="canvasGrid">
   <rect fill="url(#gridpattern)" stroke-width="0" y="0" x="0" height="100%" width="100%"/>
  </g>
 </g>
 <g>
  <title>Layer 1</title>
  <g stroke="null" id="svg_7">
   <path fill="#2196f3" stroke="null" id="svg_4" d="m295.095689,255.499998c0,-18.991685 -18.211682,-34.443358 -40.5957,-34.443358s-40.5957,15.451673 -40.5957,34.443358s18.211682,34.443358 40.5957,34.443358s40.5957,-15.451673 40.5957,-34.443358zm0,0"/>
   <path fill="#2196f3" stroke="null" id="svg_5" d="m240.968088,381.79231l0,-70.049776c-8.623059,-1.488956 -16.625915,-4.410066 -23.719589,-8.401546c-3.541551,3.004823 -61.436234,52.125475 -61.436234,52.125475l-19.134955,-16.235022l20.16042,-17.105069l-16.647061,-28.257308l-42.019364,17.825632l-12.108236,-20.540442l66.235836,-28.098845l24.723909,41.94496l21.090729,-17.894404c-7.093675,-9.074271 -11.273056,-19.924526 -11.273056,-31.605968c0,-12.482724 4.845404,-23.960859 12.855305,-33.393915l-25.1785,-34.829047l-19.906688,33.779604l-62.493418,0l0,-22.962239l45.761783,0l27.0638,-45.924477l48.961518,0l0,-34.443358l27.0638,0l0,57.405596l-43.48532,0l22.577831,31.229241c10.124261,-5.127636 21.813143,-8.267003 34.439389,-8.267003c17.189744,0 32.726756,5.638906 44.672889,14.629456l37.945703,-24.149218l-46.649818,-19.78699l33.117918,-56.197691l24.209417,10.273214l-21.009682,35.651263l61.605382,26.137487l-35.968774,22.884504l15.93522,13.520212l48.524546,0l0,22.962239l-59.730655,0l-26.598637,-22.567579l-15.08243,9.597504c4.168809,7.444786 6.688421,15.675915 6.688421,24.451194c0,5.142585 -1.060702,10.037009 -2.561895,14.781941l43.154068,18.307004l48.07701,-20.396928l12.108236,20.540442l-50.092703,21.252026l-15.255097,25.883349l32.229883,0l0,22.962239l-76.025318,0l30.806218,-52.268989l-37.152815,-15.759635c-9.733108,10.482507 -23.448248,18.181432 -39.415186,20.941087l0,70.049776l161.656868,0c35.408472,-35.247633 55.755659,-79.467883 55.755659,-126.292312c0,-107.850764 -103.786859,-195.944435 -230.944427,-195.944435c-127.115286,0 -230.944427,88.057797 -230.944427,195.944435c0,46.827421 20.350706,91.050656 55.748605,126.292312l161.663923,0zm0,0"/>
   <path fill="#2196f3" stroke="null" id="svg_6" d="m78.585288,404.754548c-14.948519,0 -27.0638,10.279191 -27.0638,22.962239l0,23.727646l405.957001,0l0,-23.727646c0,-12.683047 -12.115282,-22.962239 -27.0638,-22.962239l-351.829401,0zm0,0"/>
  </g>
 </g>
</svg>